<?xml version="1.0" encoding="utf-8"?>
<!-- Generator: Adobe Illustrator 19.0.0, SVG Export Plug-In . SVG Version: 6.00 Build 0)  -->
<svg version="1.1" xmlns="http://www.w3.org/2000/svg" xmlns:xlink="http://www.w3.org/1999/xlink" x="0px" y="0px"
	 viewBox="0 0 512 512" style="enable-background:new 0 0 512 512;" xml:space="preserve">
<style type="text/css">
	.st0{display:none;}
	.st1{display:inline;}
	.st2{stroke:#000000;stroke-width:0.7063;}
	.st3{stroke:#000000;}
	.st4{display:inline;stroke:#000000;stroke-width:0.5923;}
	.st5{display:inline;stroke:#000000;}
	.st6{display:inline;stroke:#000000;stroke-width:0.7454;}
	.st7{display:inline;fill:#546E7A;}
	.st8{fill:#FFFFFF;stroke:#000000;stroke-width:0.6233;}
	.st9{display:inline;fill:#FFFFFF;}
	.st10{clip-path:url(#SVGID_2_);}
	.st11{fill:#546E7A;}
	.st12{fill:#FFFFFF;}
	.st13{display:inline;fill:none;stroke:#000000;stroke-miterlimit:10;}
</style>
<g id="Layer_2" class="st0">
	<g class="st1">
		<path class="st2" d="M428.1,305c-4.5,1-6.7,2.4-9.9,5.3c-8.6,7.7-11.6,22.1-2.1,32.3c3.8,4.1,9.5,5.8,14.1,5.5
			c8.2-0.5,14.1-6.7,13.6-14.8c-0.6-7.1-7.9-12-12.7-10c-0.3,0.1-0.6,0.3-0.8,0.4c-3.1,2.5-2.1,3.2,0.5,2.2c2.5-1,6,0.3,7.6,2.8
			c1.7,2.5,1.4,8-1,11c-2.2,2.8-5.4,4.1-10.1,3.2c-9-1.8-13.1-11.9-9.9-20.9c2.5-7.1,8.6-11.4,16.9-11.4c11.5,1,17.4,7.8,20.3,15.4
			c1,2.7,1.3,4.8,1.6,7.8c0.5,4.3,0.1,7.6,0.1,8.5c-1.3,33.5-52.4,49.9-96.1,40.2c-8.9-1.5-19.7-5.2-35.4-11.9
			c-33.8-15-78.6-38.9-115.1-69.6c-10.9-8.9-18.5-16.1-21-20.1c-2.4-3.7-2.4-3.9-1.2-4.8c2.2-1.6,4-2,25.7-5.1
			c34.4-6.4,48.2-13.3,73.8-23.2c13-6.1,7.2-4.4,11.3-5.3c11.8-2.5,24,0.5,36,0.9c24.8,0.8,66.1,2,74.5,2.8
			c19.6,1.8,30.2,2.8,31.4,2.9c13.1,1.1,13,1.1,18.7,2.1c0.2-2.8,0.4-5.6,0.3-8.2c0-4.3,1-8.7-0.4-10.1c-1.8-1.8-5.5,0.4-27.1-0.4
			c-17.8-0.7-46.1-2.7-52.6-3.2c-24.9-1.9-40.3-0.6-65-7.3c-11.8-3.2-16.6-5.4-25-10.6c-11.4-7-11.7-7.2-21.3-11.4
			c-18.1-7.9-47.1-16.4-64.9-18.4c-4.7-0.5-14.6-2.9-32-2.4c-25,0.7-30,2.8-43.8,7.1c-18.8,5.9-21.7,9.3-40.6,34.7
			c-10.5,14.2-16.3,20.8-27.4,31.6c-10.7,10.4-12.6,14.1-8.7,16.7c1.6,1.1,3.3,1.1,16.1,0.6c18-0.8,23.7-0.6,29.6,0.8
			c6.6,1.6,9.2,3.5,9.8,7c0.3,1.5,0.6,9,0.7,16.6c0.2,15.4-0.2,17.1-4.6,23.2c-5,6.8-5.1,14.3-0.5,21.5c2.8,4.4,4.7,9.5,6.8,18.8
			c2.4,10.3,5.7,20,7.4,30.4c2.4,14.4,3.8,18.3,8.6,18.3l0,0c4.4,0,8.4-0.9,9.4-3.3c0.5-1.3,1.3-14.7,2.4-44.3
			c0.7-19,1.9-27.7,4.2-31.5c1.4-2.3,1.5-3.4,1.5-23.7c0-13.3,0.3-21.5,0.7-21.8c1.8-1.1,10,4.2,23.3,15
			c45.6,36.7,121.1,76.5,146.9,85c24.2,10,37.1,13.1,56.9,14.8c46.8,3.3,93.7-16.7,93.2-58.3c-0.1-5-0.2-10-2.7-16.4
			C454.8,308.2,441.8,302,428.1,305z M273.1,219.3c4.7,3.1,8.2,7.7,7.9,9.2l0,0c-12.8,17.4-41.6,26.2-74.7,30.1
			c12-9.1,19.7-23.4,19.7-39.6c0-6.2-1.1-12.3-3.3-18c8.6,1.8,17.4,4.1,26.2,7C257.3,211.2,265.8,214.4,273.1,219.3z M90.1,256.7
			c-6.8-0.3-12.4-1.4-12.4-2.5c0-0.8,3.7-5.3,10.2-12.6c6.4-7.1,9.8-11.3,13.4-16.5c1.8-2.6,5.7-6.8,8.6-9.5
			c6.1-5.5,8.6-7.4,16.1-11c1.1-0.6,2.2-1.1,3.4-1.6c-1.8,5.2-2.7,10.6-2.7,16.1c0,17.6,9.2,33.1,23.1,41.9
			C128,260.5,107,258.8,90.1,256.7z"/>
		<path class="st2" d="M461.7,168.1c-1.1-2.2-1.3-2.2-5.9-2.2c-12.3,0-48.2-1.5-71.5-6.8c-23.1-5.3-44.5-16.3-66.7-24.7
			c-19.1-7.2-37.2-17.7-57.2-21.8c-37.7-7.9-77.1-9-115.5-5.5c-14.2,1.3-28.1,5.4-41.7,9.9c-13.5,4.5-27.4,8.9-39.3,16.8
			c-3.5,2.3-8.7,4.5-9,8.7c-0.3,4,3.5,8.3,7.3,9.4c3.6,1.1,7.1-2.5,10.7-3.8c12.3-4.3,24.5-9.3,37.1-12.7
			c16.1-4.4,32.5-8.5,49.1-9.8c30-2.3,60.6-1.3,90.2,3.9c11.5,2,22.4,6.5,33.4,10.4c6,2.2,11.8,4.8,17.7,7.2
			c5.4,2.2,10.8,4.6,16.2,6.8c12.3,4.9,24.4,10.3,37.1,14c13.4,3.8,27.2,6.2,41,8.1c14.9,2,33.2,3.1,44.9,3.5l0,0
			c8.3,0.3,22.6-0.2,23.6-0.8C463.9,178.2,463,170.7,461.7,168.1z"/>
	</g>
</g>
<g id="Layer_3_copy" class="st0">
	<g class="st1">
		<path class="st3" d="M189.4,259.7c44.3-5.2,83-17.2,100.2-40.2h0c0.4-2-4.4-8.4-10.6-12.6c-9.9-6.6-21.2-11-32.3-15.2
			c-11.8-3.8-23.6-7-35.2-9.4c2.9,7.6,4.4,15.9,4.4,24.2C215.9,228.2,205.5,247.6,189.4,259.7z"/>
		<path class="st2" d="M81.6,186.9c-10,4.9-13.4,7.4-21.6,14.8c-3.9,3.5-9.1,9.2-11.5,12.7c-4.9,7-9.5,12.6-18,22.1
			c-8.8,9.8-13.7,15.9-13.7,17c0,1.5,7.5,3,16.6,3.4c22.6,2.9,50.9,5.2,80.4,5.8c-18.6-11.8-31-32.6-31-56.3
			c0-7.4,1.2-14.7,3.6-21.6C84.6,185.5,83.1,186.2,81.6,186.9z"/>
		<path class="st3" d="M185,156.3c23.9,2.7,62.8,14.1,87.2,24.7c12.9,5.6,13.3,5.9,28.6,15.3c11.4,7.1,17.8,9.9,33.6,14.3
			c33.1,9.1,53.8,7.4,87.2,9.8c8.8,0.7,47,3.3,70.9,4.2c8.5,0.3,15.1,0.3,20.1,0.1v-71.3c-4,0-7.2,0-10.1-0.1l-0.1,0
			c-15.7-0.5-40.3-1.9-60.3-4.6c-18.5-2.5-37-5.8-55-10.9c-17-4.9-33.3-12.2-49.8-18.7c-7.3-2.9-14.5-6.1-21.8-9.1
			c-7.9-3.3-15.7-6.8-23.7-9.7C277,95,262.3,89,246.9,86.3c-39.8-7-80.8-8.3-121.1-5.2c-22.3,1.7-44.3,7.3-65.9,13.2
			c-16.9,4.6-33,11.4-49.6,17.1c-3.4,1.2-6.8,3.9-9.8,4.9v127.3c10-10.3,17.1-19.1,28.4-34.3c25.4-34.2,29.2-38.7,54.4-46.6
			c18.6-5.8,25.3-8.5,58.8-9.5C165.4,152.4,178.8,155.6,185,156.3z"/>
		<path class="st3" d="M409,445.1c-26.6-2.3-43.9-6.5-76.4-19.8c-34.7-11.5-136.1-64.8-197.2-114.1c-17.9-14.5-29-21.6-31.4-20.1
			c-0.6,0.4-1,11.4-1,29.2c0,27.3-0.1,28.8-2,31.8c-3.1,5.1-4.7,16.8-5.7,42.3c-1.5,39.7-2.5,57.8-3.3,59.5
			c-1.3,3.2-6.7,4.4-12.6,4.4l0,0c-6.4,0-8.3-5.2-11.5-24.6c-2.3-14-6.7-27-10-40.8c-2.9-12.4-5.3-19.3-9.2-25.2
			c-6.2-9.7-6-19.8,0.7-28.9c6-8.2,6.5-10.5,6.2-31.2c-0.1-10.2-0.5-20.2-0.9-22.3c-0.8-4.8-4.4-7.3-13.2-9.4
			c-8-2-15.4-2.2-39.6-1.1c-0.6,0-1.6,0.1-1.6,0.1v237.6h512v-96C488.5,438.2,448.7,447.9,409,445.1z"/>
		<path class="st3" d="M51,69.5c18.2-6,36.8-11.5,55.9-13.3c51.5-4.8,104.3-3.3,155,7.3c26.8,5.6,51.1,19.7,76.8,29.3
			c29.8,11.2,58.8,26,89.8,33.1c25.5,5.8,62.1,8.2,84.1,8.9V0.5H0.5v90.3C15.5,81,33.6,75.3,51,69.5z"/>
		<path class="st3" d="M194,316.7c48.9,41.3,109.1,73.4,154.4,93.5c21.1,9,35.8,13.9,47.7,15.9c43.8,9.7,93.3-0.1,116.3-24.5V247.7
			c-3-0.2-5.3-0.4-8.7-0.7c-1.6-0.1-16-1.6-42.3-4c-11.3-1-66.7-2.7-100.1-3.7c-16.1-0.5-32.6-4.5-48.4-1.2
			c-5.5,1.1,2.2-1.1-15.2,7.1c-34.4,13.3-53,22.6-99.1,31.1c-29.2,4.3-31.5,4.7-34.5,6.9c-1.7,1.2-1.6,1.5,1.6,6.5
			C169.2,295,179.4,304.7,194,316.7z"/>
	</g>
</g>
<g id="Layer_4" class="st0">
	<rect x="58.6" y="197.9" class="st4" width="24" height="23.5"/>
	<rect x="34.6" y="221.5" class="st4" width="24" height="23.5"/>
	<rect x="34.6" y="268.5" class="st4" width="24" height="23.5"/>
	<rect x="10.6" y="268.5" class="st4" width="24" height="23.5"/>
	<rect x="34.6" y="292.1" class="st4" width="24" height="23.5"/>
	<rect x="10.6" y="292.1" class="st4" width="24" height="23.5"/>
	<rect x="34.6" y="315.6" class="st4" width="24" height="23.5"/>
	<rect x="10.6" y="315.6" class="st4" width="24" height="23.5"/>
	<rect x="106.6" y="315.6" class="st4" width="24" height="23.5"/>
	<rect x="130.6" y="339.1" class="st4" width="24" height="23.5"/>
	<rect x="106.6" y="339.1" class="st4" width="24" height="23.5"/>
	<rect x="10.6" y="339.1" class="st4" width="24" height="23.5"/>
	<rect x="10.6" y="362.6" class="st4" width="24" height="23.5"/>
	<rect x="34.6" y="386.2" class="st4" width="24" height="23.5"/>
	<rect x="10.6" y="386.2" class="st4" width="24" height="23.5"/>
	<rect x="34.6" y="409.7" class="st4" width="24" height="23.5"/>
	<rect x="10.6" y="409.7" class="st4" width="24" height="23.5"/>
	<rect x="34.6" y="433.2" class="st4" width="24" height="23.5"/>
	<rect x="10.6" y="433.2" class="st4" width="24" height="23.5"/>
	<rect x="34.6" y="456.8" class="st4" width="24" height="23.5"/>
	<rect x="10.6" y="456.8" class="st4" width="24" height="23.5"/>
	<rect x="130.6" y="362.6" class="st4" width="24" height="23.5"/>
	<rect x="106.6" y="362.6" class="st4" width="24" height="23.5"/>
	<rect x="130.6" y="386.2" class="st4" width="24" height="23.5"/>
	<rect x="106.6" y="386.2" class="st4" width="24" height="23.5"/>
	<rect x="130.6" y="409.7" class="st4" width="24" height="23.5"/>
	<rect x="106.6" y="409.7" class="st4" width="24" height="23.5"/>
	<rect x="130.6" y="433.2" class="st4" width="24" height="23.5"/>
	<rect x="106.6" y="433.2" class="st4" width="24" height="23.5"/>
	<rect x="82.6" y="456.8" class="st4" width="24" height="23.5"/>
	<rect x="58.6" y="456.8" class="st4" width="24" height="23.5"/>
	<rect x="130.6" y="456.8" class="st4" width="24" height="23.5"/>
	<rect x="106.6" y="456.8" class="st4" width="24" height="23.5"/>
	<rect x="34.6" y="480.3" class="st4" width="24" height="23.5"/>
	<rect x="10.6" y="480.3" class="st4" width="24" height="23.5"/>
	<rect x="-13.4" y="268.5" class="st4" width="24" height="23.5"/>
	<rect x="-13.4" y="292.1" class="st4" width="24" height="23.5"/>
	<rect x="-13.4" y="315.6" class="st4" width="24" height="23.5"/>
	<rect x="-13.4" y="339.1" class="st4" width="24" height="23.5"/>
	<rect x="-13.4" y="362.6" class="st4" width="24" height="23.5"/>
	<rect x="-13.4" y="386.2" class="st4" width="24" height="23.5"/>
	<rect x="-13.4" y="409.7" class="st4" width="24" height="23.5"/>
	<rect x="-13.4" y="433.2" class="st4" width="24" height="23.5"/>
	<rect x="-13.4" y="456.8" class="st4" width="24" height="23.5"/>
	<rect x="-13.4" y="480.3" class="st4" width="24" height="23.5"/>
	<rect x="82.6" y="480.3" class="st4" width="24" height="23.5"/>
	<rect x="58.6" y="480.3" class="st4" width="24" height="23.5"/>
	<rect x="130.6" y="480.3" class="st4" width="24" height="23.5"/>
	<rect x="106.6" y="480.3" class="st4" width="24" height="23.5"/>
	<rect x="154.6" y="362.6" class="st4" width="24" height="23.5"/>
	<rect x="178.6" y="362.6" class="st4" width="24" height="23.5"/>
	<rect x="178.6" y="386.2" class="st4" width="24" height="23.5"/>
	<rect x="154.6" y="386.2" class="st4" width="24" height="23.5"/>
	<rect x="178.6" y="409.7" class="st4" width="24" height="23.5"/>
	<rect x="154.6" y="409.7" class="st4" width="24" height="23.5"/>
	<rect x="178.6" y="433.2" class="st4" width="24" height="23.5"/>
	<rect x="154.6" y="433.2" class="st4" width="24" height="23.5"/>
	<rect x="178.6" y="456.8" class="st4" width="24" height="23.5"/>
	<rect x="154.6" y="456.8" class="st4" width="24" height="23.5"/>
	<rect x="178.6" y="480.3" class="st4" width="24" height="23.5"/>
	<rect x="154.6" y="480.3" class="st4" width="24" height="23.5"/>
	<rect x="202.6" y="386.2" class="st4" width="24" height="23.5"/>
	<rect x="226.6" y="386.2" class="st4" width="24" height="23.5"/>
	<rect x="226.6" y="409.7" class="st4" width="24" height="23.5"/>
	<rect x="202.6" y="409.7" class="st4" width="24" height="23.5"/>
	<rect x="226.6" y="433.2" class="st4" width="24" height="23.5"/>
	<rect x="202.6" y="433.2" class="st4" width="24" height="23.5"/>
	<rect x="226.6" y="456.8" class="st4" width="24" height="23.5"/>
	<rect x="202.6" y="456.8" class="st4" width="24" height="23.5"/>
	<rect x="226.6" y="480.3" class="st4" width="24" height="23.5"/>
	<rect x="202.6" y="480.3" class="st4" width="24" height="23.5"/>
	<rect x="250.6" y="409.7" class="st4" width="24" height="23.5"/>
	<rect x="274.6" y="409.7" class="st4" width="24" height="23.5"/>
	<rect x="274.6" y="433.2" class="st4" width="24" height="23.5"/>
	<rect x="250.6" y="433.2" class="st4" width="24" height="23.5"/>
	<rect x="274.6" y="456.8" class="st4" width="24" height="23.5"/>
	<rect x="250.6" y="456.8" class="st4" width="24" height="23.5"/>
	<rect x="274.6" y="480.3" class="st4" width="24" height="23.5"/>
	<rect x="250.6" y="480.3" class="st4" width="24" height="23.5"/>
	<rect x="298.6" y="433.2" class="st4" width="24" height="23.5"/>
	<rect x="322.6" y="433.2" class="st4" width="24" height="23.5"/>
	<rect x="490.6" y="433.2" class="st4" width="24" height="23.5"/>
	<rect x="322.6" y="456.8" class="st4" width="24" height="23.5"/>
	<rect x="298.6" y="456.8" class="st4" width="24" height="23.5"/>
	<rect x="322.6" y="480.3" class="st4" width="24" height="23.5"/>
	<rect x="298.6" y="480.3" class="st4" width="24" height="23.5"/>
	<rect x="346.6" y="456.8" class="st4" width="24" height="23.5"/>
	<rect x="346.6" y="480.3" class="st4" width="24" height="23.5"/>
	<rect x="58.6" y="221.5" class="st4" width="24" height="23.5"/>
	<rect x="216" y="197.9" class="st4" width="24" height="23.5"/>
	<rect x="240" y="197.9" class="st4" width="24" height="23.5"/>
	<rect x="216" y="221.5" class="st4" width="24" height="23.5"/>
	<rect x="370.6" y="456.8" class="st4" width="24" height="23.5"/>
	<rect x="370.6" y="480.3" class="st4" width="24" height="23.5"/>
	<rect x="418.6" y="456.8" class="st4" width="24" height="23.5"/>
	<rect x="394.6" y="456.8" class="st4" width="24" height="23.5"/>
	<rect x="418.6" y="480.3" class="st4" width="24" height="23.5"/>
	<rect x="394.6" y="480.3" class="st4" width="24" height="23.5"/>
	<rect x="466.6" y="456.8" class="st4" width="24" height="23.5"/>
	<rect x="442.6" y="456.8" class="st4" width="24" height="23.5"/>
	<rect x="466.6" y="480.3" class="st4" width="24" height="23.5"/>
	<rect x="442.6" y="480.3" class="st4" width="24" height="23.5"/>
	<rect x="490.6" y="456.8" class="st4" width="24" height="23.5"/>
	<rect x="490.6" y="480.3" class="st4" width="24" height="23.5"/>
	<rect x="10.6" y="174.4" class="st4" width="24" height="23.5"/>
	<rect x="274.6" y="174.4" class="st4" width="24" height="23.5"/>
	<rect x="322.6" y="174.4" class="st4" width="24" height="23.5"/>
	<rect x="298.6" y="174.4" class="st4" width="24" height="23.5"/>
	<rect x="346.6" y="174.4" class="st4" width="24" height="23.5"/>
	<rect x="370.6" y="174.4" class="st4" width="24" height="23.5"/>
	<rect x="418.6" y="174.4" class="st4" width="24" height="23.5"/>
	<rect x="394.6" y="174.4" class="st4" width="24" height="23.5"/>
	<rect x="466.6" y="174.4" class="st4" width="24" height="23.5"/>
	<rect x="442.6" y="174.4" class="st4" width="24" height="23.5"/>
	<rect x="490.6" y="174.4" class="st4" width="24" height="23.5"/>
	<rect x="346.6" y="197.9" class="st4" width="24" height="23.5"/>
	<rect x="370.6" y="197.9" class="st4" width="24" height="23.5"/>
	<rect x="418.6" y="197.9" class="st4" width="24" height="23.5"/>
	<rect x="394.6" y="197.9" class="st4" width="24" height="23.5"/>
	<rect x="466.6" y="197.9" class="st4" width="24" height="23.5"/>
	<rect x="442.6" y="197.9" class="st4" width="24" height="23.5"/>
	<rect x="490.6" y="197.9" class="st4" width="24" height="23.5"/>
	<rect x="34.6" y="150.9" class="st4" width="24" height="23.5"/>
	<rect x="10.6" y="150.9" class="st4" width="24" height="23.5"/>
	<rect x="58.6" y="150.9" class="st4" width="24" height="23.5"/>
	<rect x="226.6" y="150.9" class="st4" width="24" height="23.5"/>
	<rect x="274.6" y="150.9" class="st4" width="24" height="23.5"/>
	<rect x="250.6" y="150.9" class="st4" width="24" height="23.5"/>
	<rect x="322.6" y="150.9" class="st4" width="24" height="23.5"/>
	<rect x="298.6" y="150.9" class="st4" width="24" height="23.5"/>
	<rect x="346.6" y="150.9" class="st4" width="24" height="23.5"/>
	<rect x="370.6" y="150.9" class="st4" width="24" height="23.5"/>
	<rect x="418.6" y="150.9" class="st4" width="24" height="23.5"/>
	<rect x="394.6" y="150.9" class="st4" width="24" height="23.5"/>
	<rect x="466.6" y="150.9" class="st4" width="24" height="23.5"/>
	<rect x="442.6" y="150.9" class="st4" width="24" height="23.5"/>
	<rect x="490.6" y="150.9" class="st4" width="24" height="23.5"/>
	<rect x="34.6" y="127.3" class="st4" width="24" height="23.5"/>
	<rect x="10.6" y="127.3" class="st4" width="24" height="23.5"/>
	<rect x="82.6" y="127.3" class="st4" width="24" height="23.5"/>
	<rect x="58.6" y="127.3" class="st4" width="24" height="23.5"/>
	<rect x="130.6" y="127.3" class="st4" width="24" height="23.5"/>
	<rect x="106.6" y="127.3" class="st4" width="24" height="23.5"/>
	<rect x="178.6" y="127.3" class="st4" width="24" height="23.5"/>
	<rect x="154.6" y="127.3" class="st4" width="24" height="23.5"/>
	<rect x="226.6" y="127.3" class="st4" width="24" height="23.5"/>
	<rect x="202.6" y="127.3" class="st4" width="24" height="23.5"/>
	<rect x="274.6" y="127.3" class="st4" width="24" height="23.5"/>
	<rect x="250.6" y="127.3" class="st4" width="24" height="23.5"/>
	<rect x="322.6" y="127.3" class="st4" width="24" height="23.5"/>
	<rect x="298.6" y="127.3" class="st4" width="24" height="23.5"/>
	<rect x="346.6" y="127.3" class="st4" width="24" height="23.5"/>
	<rect x="34.6" y="103.8" class="st4" width="24" height="23.5"/>
	<rect x="10.6" y="103.8" class="st4" width="24" height="23.5"/>
	<rect x="82.6" y="103.8" class="st4" width="24" height="23.5"/>
	<rect x="58.6" y="103.8" class="st4" width="24" height="23.5"/>
	<rect x="130.6" y="103.8" class="st4" width="24" height="23.5"/>
	<rect x="106.6" y="103.8" class="st4" width="24" height="23.5"/>
	<rect x="178.6" y="103.8" class="st4" width="24" height="23.5"/>
	<rect x="154.6" y="103.8" class="st4" width="24" height="23.5"/>
	<rect x="226.6" y="103.8" class="st4" width="24" height="23.5"/>
	<rect x="202.6" y="103.8" class="st4" width="24" height="23.5"/>
	<rect x="274.6" y="103.8" class="st4" width="24" height="23.5"/>
	<rect x="250.6" y="103.8" class="st4" width="24" height="23.5"/>
	<rect x="298.6" y="103.8" class="st4" width="24" height="23.5"/>
	<rect x="418.6" y="103.8" class="st4" width="24" height="23.5"/>
	<rect x="466.6" y="103.8" class="st4" width="24" height="23.5"/>
	<rect x="442.6" y="103.8" class="st4" width="24" height="23.5"/>
	<rect x="490.6" y="103.8" class="st4" width="24" height="23.5"/>
	<rect x="82.6" y="80.3" class="st4" width="24" height="23.5"/>
	<rect x="130.6" y="80.3" class="st4" width="24" height="23.5"/>
	<rect x="106.6" y="80.3" class="st4" width="24" height="23.5"/>
	<rect x="178.6" y="80.3" class="st4" width="24" height="23.5"/>
	<rect x="154.6" y="80.3" class="st4" width="24" height="23.5"/>
	<rect x="226.6" y="80.3" class="st4" width="24" height="23.5"/>
	<rect x="202.6" y="80.3" class="st4" width="24" height="23.5"/>
	<rect x="346.6" y="80.3" class="st4" width="24" height="23.5"/>
	<rect x="370.6" y="80.3" class="st4" width="24" height="23.5"/>
	<rect x="418.6" y="80.3" class="st4" width="24" height="23.5"/>
	<rect x="394.6" y="80.3" class="st4" width="24" height="23.5"/>
	<rect x="466.6" y="80.3" class="st4" width="24" height="23.5"/>
	<rect x="442.6" y="80.3" class="st4" width="24" height="23.5"/>
	<rect x="490.6" y="80.3" class="st4" width="24" height="23.5"/>
	<rect x="10.6" y="56.7" class="st4" width="24" height="23.5"/>
	<rect x="322.6" y="56.7" class="st4" width="24" height="23.5"/>
	<rect x="298.6" y="56.7" class="st4" width="24" height="23.5"/>
	<rect x="346.6" y="56.7" class="st4" width="24" height="23.5"/>
	<rect x="370.6" y="56.7" class="st4" width="24" height="23.5"/>
	<rect x="418.6" y="56.7" class="st4" width="24" height="23.5"/>
	<rect x="394.6" y="56.7" class="st4" width="24" height="23.5"/>
	<rect x="466.6" y="56.7" class="st4" width="24" height="23.5"/>
	<rect x="442.6" y="56.7" class="st4" width="24" height="23.5"/>
	<rect x="490.6" y="56.7" class="st4" width="24" height="23.5"/>
	<rect x="34.6" y="33.2" class="st4" width="24" height="23.5"/>
	<rect x="10.6" y="33.2" class="st4" width="24" height="23.5"/>
	<rect x="82.6" y="33.2" class="st4" width="24" height="23.5"/>
	<rect x="58.6" y="33.2" class="st4" width="24" height="23.5"/>
	<rect x="130.6" y="33.2" class="st4" width="24" height="23.5"/>
	<rect x="106.6" y="33.2" class="st4" width="24" height="23.5"/>
	<rect x="178.6" y="33.2" class="st4" width="24" height="23.5"/>
	<rect x="154.6" y="33.2" class="st4" width="24" height="23.5"/>
	<rect x="226.6" y="33.2" class="st4" width="24" height="23.5"/>
	<rect x="202.6" y="33.2" class="st4" width="24" height="23.5"/>
	<rect x="274.6" y="33.2" class="st4" width="24" height="23.5"/>
	<rect x="250.6" y="33.2" class="st4" width="24" height="23.5"/>
	<rect x="322.6" y="33.2" class="st4" width="24" height="23.5"/>
	<rect x="298.6" y="33.2" class="st4" width="24" height="23.5"/>
	<rect x="346.6" y="33.2" class="st4" width="24" height="23.5"/>
	<rect x="370.6" y="33.2" class="st4" width="24" height="23.5"/>
	<rect x="418.6" y="33.2" class="st4" width="24" height="23.5"/>
	<rect x="394.6" y="33.2" class="st4" width="24" height="23.5"/>
	<rect x="466.6" y="33.2" class="st4" width="24" height="23.5"/>
	<rect x="442.6" y="33.2" class="st4" width="24" height="23.5"/>
	<rect x="490.6" y="33.2" class="st4" width="24" height="23.5"/>
	<rect x="34.6" y="9.7" class="st4" width="24" height="23.5"/>
	<rect x="10.6" y="9.7" class="st4" width="24" height="23.5"/>
	<rect x="82.6" y="9.7" class="st4" width="24" height="23.5"/>
	<rect x="58.6" y="9.7" class="st4" width="24" height="23.5"/>
	<rect x="130.6" y="9.7" class="st4" width="24" height="23.5"/>
	<rect x="106.6" y="9.7" class="st4" width="24" height="23.5"/>
	<rect x="178.6" y="9.7" class="st4" width="24" height="23.5"/>
	<rect x="154.6" y="9.7" class="st4" width="24" height="23.5"/>
	<rect x="226.6" y="9.7" class="st4" width="24" height="23.5"/>
	<rect x="202.6" y="9.7" class="st4" width="24" height="23.5"/>
	<rect x="274.6" y="9.7" class="st4" width="24" height="23.5"/>
	<rect x="250.6" y="9.7" class="st4" width="24" height="23.5"/>
	<rect x="322.6" y="9.7" class="st4" width="24" height="23.5"/>
	<rect x="298.6" y="9.7" class="st4" width="24" height="23.5"/>
	<rect x="346.6" y="9.7" class="st4" width="24" height="23.5"/>
	<rect x="370.6" y="9.7" class="st4" width="24" height="23.5"/>
	<rect x="418.6" y="9.7" class="st4" width="24" height="23.5"/>
	<rect x="394.6" y="9.7" class="st4" width="24" height="23.5"/>
	<rect x="466.6" y="9.7" class="st4" width="24" height="23.5"/>
	<rect x="442.6" y="9.7" class="st4" width="24" height="23.5"/>
	<rect x="490.6" y="9.7" class="st4" width="24" height="23.5"/>
	<rect x="34.6" y="-13.8" class="st4" width="24" height="23.5"/>
	<rect x="10.6" y="-13.8" class="st4" width="24" height="23.5"/>
	<rect x="-13.4" y="197.9" class="st4" width="24" height="23.5"/>
	<rect x="-13.4" y="174.4" class="st4" width="24" height="23.5"/>
	<rect x="-13.4" y="150.9" class="st4" width="24" height="23.5"/>
	<rect x="-13.4" y="127.3" class="st4" width="24" height="23.5"/>
	<rect x="-13.4" y="103.8" class="st4" width="24" height="23.5"/>
	<rect x="-13.4" y="80.3" class="st4" width="24" height="23.5"/>
	<rect x="-13.4" y="56.7" class="st4" width="24" height="23.5"/>
	<rect x="-13.4" y="33.2" class="st4" width="24" height="23.5"/>
	<rect x="-13.4" y="9.7" class="st4" width="24" height="23.5"/>
	<rect x="-13.4" y="-13.8" class="st4" width="24" height="23.5"/>
	<rect x="82.6" y="-13.8" class="st4" width="24" height="23.5"/>
	<rect x="58.6" y="-13.8" class="st4" width="24" height="23.5"/>
	<rect x="130.6" y="-13.8" class="st4" width="24" height="23.5"/>
	<rect x="106.6" y="-13.8" class="st4" width="24" height="23.5"/>
	<rect x="178.6" y="-13.8" class="st4" width="24" height="23.5"/>
	<rect x="154.6" y="-13.8" class="st4" width="24" height="23.5"/>
	<rect x="226.6" y="-13.8" class="st4" width="24" height="23.5"/>
	<rect x="202.6" y="-13.8" class="st4" width="24" height="23.5"/>
	<rect x="274.6" y="-13.8" class="st4" width="24" height="23.5"/>
	<rect x="250.6" y="-13.8" class="st4" width="24" height="23.5"/>
	<rect x="322.6" y="-13.8" class="st4" width="24" height="23.5"/>
	<rect x="298.6" y="-13.8" class="st4" width="24" height="23.5"/>
	<rect x="346.6" y="-13.8" class="st4" width="24" height="23.5"/>
	<rect x="370.6" y="-13.8" class="st4" width="24" height="23.5"/>
	<rect x="418.6" y="-13.8" class="st4" width="24" height="23.5"/>
	<rect x="394.6" y="-13.8" class="st4" width="24" height="23.5"/>
	<rect x="466.6" y="-13.8" class="st4" width="24" height="23.5"/>
	<rect x="442.6" y="-13.8" class="st4" width="24" height="23.5"/>
	<rect x="490.6" y="-13.8" class="st4" width="24" height="23.5"/>
	<rect x="418.6" y="409.7" class="st4" width="24" height="23.5"/>
	<rect x="394.6" y="409.7" class="st4" width="24" height="23.5"/>
	<rect x="442.6" y="409.7" class="st4" width="24" height="23.5"/>
	<rect x="322.6" y="386.2" class="st4" width="24" height="23.5"/>
	<rect x="346.6" y="386.2" class="st4" width="24" height="23.5"/>
	<rect x="370.6" y="386.2" class="st4" width="24" height="23.5"/>
	<rect x="418.6" y="386.2" class="st4" width="24" height="23.5"/>
	<rect x="394.6" y="386.2" class="st4" width="24" height="23.5"/>
	<rect x="466.6" y="386.2" class="st4" width="24" height="23.5"/>
	<rect x="442.6" y="386.2" class="st4" width="24" height="23.5"/>
	<rect x="490.6" y="386.2" class="st4" width="24" height="23.5"/>
	<rect x="274.6" y="362.6" class="st4" width="24" height="23.5"/>
	<rect x="322.6" y="362.6" class="st4" width="24" height="23.5"/>
	<rect x="298.6" y="362.6" class="st4" width="24" height="23.5"/>
	<rect x="346.6" y="362.6" class="st4" width="24" height="23.5"/>
	<rect x="370.6" y="362.6" class="st4" width="24" height="23.5"/>
	<rect x="418.6" y="362.6" class="st4" width="24" height="23.5"/>
	<rect x="394.6" y="362.6" class="st4" width="24" height="23.5"/>
	<rect x="466.6" y="362.6" class="st4" width="24" height="23.5"/>
	<rect x="442.6" y="362.6" class="st4" width="24" height="23.5"/>
	<rect x="490.6" y="362.6" class="st4" width="24" height="23.5"/>
	<rect x="226.6" y="339.1" class="st4" width="24" height="23.5"/>
	<rect x="274.6" y="339.1" class="st4" width="24" height="23.5"/>
	<rect x="250.6" y="339.1" class="st4" width="24" height="23.5"/>
	<rect x="322.6" y="339.1" class="st4" width="24" height="23.5"/>
	<rect x="298.6" y="339.1" class="st4" width="24" height="23.5"/>
	<rect x="346.6" y="339.1" class="st4" width="24" height="23.5"/>
	<rect x="370.6" y="339.1" class="st4" width="24" height="23.5"/>
	<rect x="418.6" y="339.1" class="st4" width="24" height="23.5"/>
	<rect x="394.6" y="339.1" class="st4" width="24" height="23.5"/>
	<rect x="466.6" y="339.1" class="st4" width="24" height="23.5"/>
	<rect x="442.6" y="339.1" class="st4" width="24" height="23.5"/>
	<rect x="490.6" y="339.1" class="st4" width="24" height="23.5"/>
	<rect x="226.6" y="315.6" class="st4" width="24" height="23.5"/>
	<rect x="202.6" y="315.6" class="st4" width="24" height="23.5"/>
	<rect x="274.6" y="315.6" class="st4" width="24" height="23.5"/>
	<rect x="250.6" y="315.6" class="st4" width="24" height="23.5"/>
	<rect x="322.6" y="315.6" class="st4" width="24" height="23.5"/>
	<rect x="298.6" y="315.6" class="st4" width="24" height="23.5"/>
	<rect x="346.6" y="315.6" class="st4" width="24" height="23.5"/>
	<rect x="370.6" y="315.6" class="st4" width="24" height="23.5"/>
	<rect x="418.6" y="315.6" class="st4" width="24" height="23.5"/>
	<rect x="394.6" y="315.6" class="st4" width="24" height="23.5"/>
	<rect x="466.6" y="315.6" class="st4" width="24" height="23.5"/>
	<rect x="442.6" y="315.6" class="st4" width="24" height="23.5"/>
	<rect x="490.6" y="315.6" class="st4" width="24" height="23.5"/>
	<rect x="178.6" y="292.1" class="st4" width="24" height="23.5"/>
	<rect x="226.6" y="292.1" class="st4" width="24" height="23.5"/>
	<rect x="202.6" y="292.1" class="st4" width="24" height="23.5"/>
	<rect x="274.6" y="292.1" class="st4" width="24" height="23.5"/>
	<rect x="250.6" y="292.1" class="st4" width="24" height="23.5"/>
	<rect x="322.6" y="292.1" class="st4" width="24" height="23.5"/>
	<rect x="298.6" y="292.1" class="st4" width="24" height="23.5"/>
	<rect x="346.6" y="292.1" class="st4" width="24" height="23.5"/>
	<rect x="370.6" y="292.1" class="st4" width="24" height="23.5"/>
	<rect x="418.6" y="292.1" class="st4" width="24" height="23.5"/>
	<rect x="394.6" y="292.1" class="st4" width="24" height="23.5"/>
	<rect x="466.6" y="292.1" class="st4" width="24" height="23.5"/>
	<rect x="442.6" y="292.1" class="st4" width="24" height="23.5"/>
	<rect x="490.6" y="292.1" class="st4" width="24" height="23.5"/>
	<rect x="178.6" y="268.5" class="st4" width="24" height="23.5"/>
	<rect x="226.6" y="268.5" class="st4" width="24" height="23.5"/>
	<rect x="202.6" y="268.5" class="st4" width="24" height="23.5"/>
	<rect x="274.6" y="268.5" class="st4" width="24" height="23.5"/>
	<rect x="250.6" y="268.5" class="st4" width="24" height="23.5"/>
	<rect x="322.6" y="268.5" class="st4" width="24" height="23.5"/>
	<rect x="298.6" y="268.5" class="st4" width="24" height="23.5"/>
	<rect x="346.6" y="268.5" class="st4" width="24" height="23.5"/>
	<rect x="370.6" y="268.5" class="st4" width="24" height="23.5"/>
	<rect x="418.6" y="268.5" class="st4" width="24" height="23.5"/>
	<rect x="394.6" y="268.5" class="st4" width="24" height="23.5"/>
	<rect x="466.6" y="268.5" class="st4" width="24" height="23.5"/>
	<rect x="442.6" y="268.5" class="st4" width="24" height="23.5"/>
	<rect x="490.6" y="268.5" class="st4" width="24" height="23.5"/>
	<rect x="274.6" y="245" class="st4" width="24" height="23.5"/>
	<rect x="322.6" y="245" class="st4" width="24" height="23.5"/>
	<rect x="298.6" y="245" class="st4" width="24" height="23.5"/>
	<rect x="346.6" y="245" class="st4" width="24" height="23.5"/>
	<rect x="370.6" y="245" class="st4" width="24" height="23.5"/>
	<rect x="418.6" y="245" class="st4" width="24" height="23.5"/>
	<rect x="394.6" y="245" class="st4" width="24" height="23.5"/>
	<rect x="466.6" y="245" class="st4" width="24" height="23.5"/>
	<rect x="442.6" y="245" class="st4" width="24" height="23.5"/>
	<rect x="490.6" y="245" class="st4" width="24" height="23.5"/>
</g>
<g id="Layer_3" class="st0">
	<path class="st5" d="M185.7,259.9c46.8-5.4,87.6-18.4,105.8-42.4h0c0.4-2-4.6-8.8-11.2-13.3c-10.4-7-22.4-11.6-34.1-16.1
		c-12.4-4.1-24.9-7.4-37.1-9.9c3.1,8.1,4.7,16.8,4.6,25.5C213.6,226.7,202.6,247.1,185.7,259.9z"/>
	<path class="st6" d="M72,183.1c-10.6,5.2-14.1,7.8-22.8,15.6c-4.1,3.7-9.6,9.7-12.2,13.4c-5.1,7.3-10,13.3-19,23.4
		c-9.3,10.4-14.5,16.8-14.5,17.9c0,1.6,7.9,3.2,17.5,3.6c23.9,3,53.7,5.5,84.8,6.1c-19.7-12.5-32.7-34.4-32.7-59.4
		c0-7.8,1.3-15.5,3.8-22.8C75.1,181.5,73.5,182.3,72,183.1z"/>
	<path class="st5" d="M181.1,150.7c25.2,2.9,66.3,14.9,92,26.1c13.6,5.9,14.1,6.2,30.1,16.2c12,7.4,18.7,10.5,35.5,15
		c34.9,9.6,56.8,7.8,92.1,10.4c9.3,0.7,49.5,3.5,74.7,4.5c9,0.3,16.1,0.3,21.1,0.2v-75.3c-4,0-7.5,0-10.6-0.1l-0.1,0
		c-16.6-0.5-42.5-2-63.6-4.9c-19.5-2.7-39.1-6.1-58.1-11.5c-18-5.1-35.2-12.9-52.5-19.8c-7.7-3.1-15.3-6.5-23-9.6
		c-8.3-3.4-16.5-7.2-25-10.2c-15.5-5.6-31-12-47.3-14.8c-42-7.4-85.3-8.8-127.8-5.5C95,73.2,71.8,79.1,49,85.3
		c-17.9,4.8-34.7,12-52.2,18.1c-3.5,1.2-7.3,4.1-10.3,5.2v134.4c10-10.9,17.9-20.1,29.9-36.2c26.9-36.1,30.8-40.9,57.4-49.2
		c19.6-6.2,26.6-9,62-10.1C160.4,146.6,174.5,150,181.1,150.7z"/>
	<path class="st5" d="M417.3,455.5c-28-2.4-46.3-6.8-80.6-20.9c-36.6-12.1-143.6-68.4-208.1-120.4c-18.9-15.3-30.5-22.8-33.1-21.3
		c-0.6,0.4-1,12-1,30.8c0,28.8-0.1,30.4-2.1,33.6c-3.3,5.4-4.9,17.7-6,44.6c-1.6,41.9-2.7,61-3.4,62.8c-1.4,3.4-7,4.7-13.3,4.7l0,0
		c-6.7,0-8.7-5.4-12.2-25.9c-2.4-14.8-7.1-28.5-10.5-43.1c-3-13.1-5.6-20.3-9.7-26.6c-6.6-10.2-6.3-20.9,0.7-30.5
		c6.3-8.6,6.8-11.1,6.6-32.9c-0.1-10.7-0.6-21.3-0.9-23.5c-0.9-5-4.6-7.7-13.9-10c-8.5-2.1-16.2-2.3-41.7-1.2
		c-0.6,0-1.6,0.1-1.6,0.1v250.6h540V425.3C501.5,448.2,459.3,458.5,417.3,455.5z"/>
	<path class="st5" d="M39.7,59.2c19.2-6.3,38.8-12.1,58.9-14c54.4-5.1,110.1-3.4,163.5,7.7c28.3,5.9,53.9,20.8,81,30.9
		c31.5,11.8,61.9,27.5,94.7,34.9c27,6.1,65.6,8.7,88.6,9.4V-13.5h-540v95.1C2.5,71.3,21.4,65.2,39.7,59.2z"/>
	<path class="st5" d="M190.6,320c51.6,43.6,115.1,77.5,163,98.7c22.2,9.5,37.7,14.7,50.3,16.8c46.2,10.2,98.7-0.1,122.7-25.8V247.2
		c-3-0.2-5.5-0.4-9.1-0.8c-1.7-0.1-16.8-1.7-44.6-4.2c-11.9-1.1-70.4-2.8-105.6-3.9c-17-0.5-34.4-4.7-51-1.2
		c-5.8,1.2,2.4-1.1-16,7.5c-36.3,14.1-55.9,23.8-104.6,32.8c-30.8,4.5-33.2,5-36.4,7.3c-1.7,1.3-1.7,1.6,1.7,6.8
		C164.4,297.1,175.1,307.4,190.6,320z"/>
</g>
<g id="Layer_7" class="st0">
	<polygon class="st7" points="36,128.5 255.5,0.5 475,128.5 475,384.5 255.5,512.5 36,384.5 	"/>
</g>
<g id="Layer_6" class="st0">
	<g class="st1">
		<path class="st8" d="M407.9,302.3c-3.9,0.9-5.9,2.1-8.8,4.7c-7.6,6.8-10.2,19.5-1.8,28.5c3.4,3.6,8.4,5.1,12.5,4.9
			c7.2-0.4,12.4-5.9,12-13.1c-0.5-6.2-7-10.5-11.2-8.8c-0.3,0.1-0.5,0.2-0.7,0.4c-2.7,2.2-1.8,2.8,0.4,2c2.2-0.8,5.3,0.3,6.7,2.4
			c1.5,2.2,1.2,7.1-0.8,9.7c-1.9,2.5-4.8,3.6-8.9,2.8c-7.9-1.6-11.6-10.5-8.7-18.4c2.2-6.2,7.6-10.1,14.9-10.1
			c10.1,0.8,15.4,6.9,17.9,13.6c0.9,2.4,1.2,4.3,1.4,6.9c0.4,3.8,0.1,6.7,0.1,7.5c-1.2,29.6-46.3,44-84.8,35.5
			c-7.8-1.3-17.4-4.5-31.2-10.5c-29.8-13.2-69.3-34.3-101.5-61.5c-9.6-7.8-16.3-14.2-18.5-17.7c-2.1-3.3-2.1-3.5-1-4.3
			c2-1.4,3.5-1.7,22.7-4.5c30.3-5.6,42.5-11.7,65.1-20.5c11.5-5.4,6.4-3.9,10-4.7c10.4-2.2,21.2,0.4,31.8,0.8
			c21.9,0.7,58.4,1.8,65.8,2.4c17.3,1.6,26.7,2.5,27.7,2.6c11.5,1,11.4,0.9,16.5,1.8c0.2-2.5,0.3-4.9,0.3-7.2c0-3.8,0.9-7.7-0.4-8.9
			c-1.6-1.6-4.8,0.4-23.9-0.3c-15.7-0.6-40.7-2.4-46.4-2.8c-22-1.6-35.6-0.5-57.3-6.5c-10.4-2.9-14.6-4.7-22.1-9.4
			c-10-6.2-10.3-6.4-18.8-10.1c-16-7-41.6-14.5-57.3-16.3c-4.1-0.5-12.9-2.5-28.3-2.1c-22,0.7-26.5,2.4-38.7,6.3
			c-16.6,5.2-19.1,8.2-35.8,30.7c-9.3,12.5-14.4,18.4-24.2,27.9c-9.5,9.2-11.1,12.4-7.6,14.7c1.4,0.9,2.9,1,14.2,0.5
			c15.9-0.7,20.9-0.6,26.2,0.7c5.8,1.4,8.1,3.1,8.7,6.2c0.2,1.4,0.5,7.9,0.6,14.6c0.2,13.6-0.1,15.1-4.1,20.5
			c-4.4,6-4.5,12.6-0.4,19c2.5,3.9,4.1,8.4,6,16.6c2.1,9.1,5,17.6,6.5,26.8c2.2,12.7,3.4,16.1,7.6,16.1l0,0c3.9,0,7.4-0.8,8.3-2.9
			c0.5-1.2,1.1-13,2.1-39.1c0.7-16.8,1.7-24.4,3.7-27.8c1.2-2,1.3-3,1.3-20.9c0-11.7,0.2-19,0.6-19.2c1.6-1,8.9,3.7,20.6,13.2
			c40.2,32.4,106.8,67.5,129.6,75c21.4,8.8,32.7,11.5,50.2,13c41.3,2.9,82.7-14.7,82.2-51.4c-0.1-4.4-0.2-8.9-2.4-14.5
			C431.4,305.1,420,299.5,407.9,302.3z M271.1,226.6c4.1,2.8,7.3,6.8,7,8.2l0,0c-11.3,15.3-36.7,23.2-65.9,26.5
			c10.6-8,17.4-20.7,17.4-34.9c0-5.5-1-10.8-2.9-15.8c7.6,1.6,15.4,3.6,23.1,6.1C257.1,219.4,264.6,222.3,271.1,226.6z M109.6,259.6
			c-6-0.3-10.9-1.3-10.9-2.2c0-0.7,3.2-4.7,9-11.2c5.6-6.2,8.7-10,11.9-14.6c1.6-2.3,5-6,7.6-8.3c5.4-4.9,7.6-6.5,14.2-9.7
			c0.9-0.5,1.9-1,3-1.4c-1.5,4.5-2.4,9.3-2.3,14.2c0,15.6,8.1,29.2,20.4,37C143,263,124.5,261.5,109.6,259.6z"/>
		<path class="st8" d="M437.5,181.5c-1-1.9-1.1-2-5.2-2c-10.9,0-42.5-1.3-63.1-6c-20.4-4.7-39.3-14.4-58.9-21.8
			c-16.9-6.3-32.9-15.6-50.5-19.3c-33.3-7-68-8-101.9-4.8c-12.6,1.2-24.8,4.8-36.8,8.7c-11.9,3.9-24.2,7.9-34.7,14.8
			c-3.1,2-7.7,4-7.9,7.6c-0.3,3.5,3.1,7.3,6.4,8.3c3.2,0.9,6.3-2.2,9.5-3.3c10.9-3.8,21.6-8.2,32.7-11.2c14.2-3.8,28.6-7.5,43.3-8.6
			c26.5-2,53.5-1.2,79.6,3.4c10.1,1.8,19.8,5.7,29.4,9.2c5.3,1.9,10.4,4.2,15.6,6.4c4.8,2,9.5,4.1,14.3,6
			c10.8,4.3,21.5,9.1,32.7,12.3c11.8,3.4,24,5.5,36.1,7.1c13.1,1.8,29.3,2.7,39.6,3.1l0,0c7.3,0.2,20-0.2,20.8-0.7
			C439.4,190.4,438.6,183.7,437.5,181.5z"/>
	</g>
</g>
<g id="Layer_8" class="st0">
	<polygon class="st1" points="73,267 139.5,198.6 230.4,197.6 299.3,226.7 435.3,254.9 289,246.3 195.7,276.9 281.3,342.9 
		346.2,370.5 283.2,360.5 156,282 145.7,392 133.7,331 117.7,318.3 128.7,305.5 123,276.2 	"/>
	<polygon class="st9" points="144.4,212.2 99.5,256 162.4,263.4 	"/>
	<polygon class="st9" points="226.7,210.5 212.2,261.3 278.1,234.8 	"/>
	<polygon class="st1" points="79.3,162.5 152.4,128.4 251,130.8 366.5,172.9 438.6,190.9 365.5,186.6 250,147.5 149.4,147.1 	"/>
</g>
<g id="Layer_10" class="st0">
	<circle class="st7" cx="256" cy="256" r="256"/>
</g>
<g id="Layer_6_copy" class="st0">
	<rect x="73.6" y="73.6" class="st7" width="364.9" height="364.9"/>
	<path class="st9" d="M513.1,335.2c1.1,2.9-4.3,25.5-6,30c-4.4,11.5-15.2,19.6-25.2,25.7c-25.5,15.5-60.5,23.3-90,16.8
		c-48.9-8.4-101.5-42.8-140.2-72.2c-6.3-4.8-42.7-29.3-35.5-38c2.2-2.7,13.2-2.6,16.4-3.1c14.5-2.5,28.7-5.2,42.7-9.5
		c17.4-5.4,34.2-16,51.4-20.6c21.1-5.7,50,0.9,71.9,1.6c37,1.2,77.6,0.6,114.1,7c0.9-12.1,3.4-16-6.3-19.6c-9.5-3.5-25.8,0.6-36,0.4
		c-22.7-0.4-45.3-2.6-68-3.9c-26.3-1.5-53.2-2.3-77.3-14.3c-20.6-10.3-38.8-20.5-61.3-26.9c-37.6-10.7-82.7-16.3-119.5,0.6
		c-19.7,9.1-29.6,29-43,45.2c-4.4,5.3-43.5,44.7-44.1,44.3c5.4,3.5,39.4-7.2,47.8-7c9.5,0.2,20.5-0.4,25.8,8.6
		c6.6,11.1-1.1,30.3-4.1,40.9c-4.8,17.4,3.5,25.6,6.8,43c2.8,14.5-0.3,131,16.2,131c19,1.7,11.1-83.6,11.3-97.4
		c0.4-20.1-0.1-40.8,3.2-60.7c1.7-10,0.5-50.2,4.2-52.5c6.3-3.9,37.1,25.5,42.8,29.6c16,11.5,32.8,22,49.8,32
		c30.5,17.9,61.8,34.1,95.1,46.1c34.6,12.5,70.1,13.9,104.7,0C490.4,400.3,527.7,372,513.1,335.2C514.1,338,515.7,341.7,513.1,335.2
		z M302.3,239.8c4.8,3.2,8.5,7.9,8.2,9.5c-17.3,22.3-50.5,27.9-76.7,30.9c18-13.6,25-38.1,16.9-59.1
		C268.3,224.8,287.3,229.7,302.3,239.8C307.2,243.1,294.8,234.8,302.3,239.8z M114.3,278.2c-4.6,0.4-8.8-0.5-12.7-2.6
		c0-7.4,18.8-23.8,24.3-29.9c8.6-9.6,16.8-17.6,28.9-22.6c-7.5,22,1.4,47.2,21,59.6C153.2,282.2,131.6,280.4,114.3,278.2
		C107.3,277.9,131.6,280.4,114.3,278.2z"/>
	<path class="st9" d="M520.4,186.9c-4.2-8-58.8-3.9-68.3-4.6c-34.6-2.5-63.6-13.4-95.6-26.3c-39.2-15.8-73.8-29.5-116.4-32.4
		c-41.5-2.8-81.4,0.2-120.8,14c-14.6,5.1-59,22.8-66.6,39.6c-12.8,28.6,33.2-4.4,39.3-7.7c73.4-40.2,167.9-33.1,242.3-1.9
		c40.1,16.8,78.4,28.1,122,29.9c13.7,0.6,27.4,1.1,41.1,1.2C507,198.7,528.8,203.1,520.4,186.9C519.2,184.7,521.7,189.5,520.4,186.9
		z"/>
</g>
<g id="Layer_6_copy_2" class="st0">
	<path class="st7" d="M321.2,233.3C321.2,233.3,321.2,233.3,321.2,233.3C314.7,228.9,318.7,231.6,321.2,233.3z"/>
	<path class="st7" d="M224.8,290.1c36.8-4.3,83.6-12.2,107.9-43.5c0.4-2.2-4.7-8.8-11.5-13.3c0,0,0,0,0,0
		C300,219,273.2,212,248.5,206.9C259.8,236.6,250,271,224.8,290.1z"/>
	<path class="st7" d="M113.7,209.6c-17,7.1-28.5,18.4-40.6,31.9c-7.8,8.7-34.2,31.7-34.2,42.1c5,2.7,10.4,4,16.2,3.7
		c-0.5-0.1-0.1-0.2,1.6-0.1c24.4,3.1,54.8,5.6,86.5,6.2C115.7,276,103.1,240.6,113.7,209.6z"/>
	<path class="st7" d="M266.8,189.1c31.7,9.1,57.2,23.4,86.3,37.9c33.9,17,71.4,18,108.5,20.2c16.9,1,33.6,2.3,50.5,3.4v-78.8
		c-50.6-5.3-97.5-19.8-146.1-40.2c-104.6-43.9-237.2-53.8-340.4,2.7c-3.2,1.8-14.3,9.4-25.6,16.1v143.1c15.5-16.1,35-35.8,38.6-40
		c18.8-22.7,32.6-50.8,60.3-63.6C150.6,166.2,213.9,174,266.8,189.1z"/>
	<path class="st7" d="M321.2,233.3C321.2,233.3,321.2,233.3,321.2,233.3C322.8,234.4,323.8,235,321.2,233.3z"/>
	<path class="st7" d="M396.5,475.6c-46.8-16.9-90.8-39.6-133.6-64.8c-23.9-14.1-47.4-28.9-69.9-45c-8.1-5.8-51.3-47.2-60.2-41.7
		c-5.3,3.3-3.6,59.8-5.9,73.9c-4.7,28-3.9,56.8-4.4,85.1c-0.1,4.8,0.5,16.3,1.1,29H512v-26.8C474,493.5,434.7,489.4,396.5,475.6z"/>
	<path class="st7" d="M64.1,89.4C119.3,70,175.4,65.8,233.8,69.8c60,4.1,108.3,23.4,163.4,45.6c39,15.7,75.5,29.3,114.8,35V0H0
		v118.8C22.5,105.2,51.3,93.9,64.1,89.4z"/>
	<path class="st7" d="M83.7,435.7c-4.7-24.5-16.3-35.9-9.5-60.3c4.1-15,15-41.8,5.7-57.5c-7.5-12.6-22.7-11.7-36-12
		c-7.2-0.1-28.4,5.3-43.9,8.6V512h86.8C85.5,476.8,85.3,444.1,83.7,435.7z"/>
	<path class="st7" d="M250,367.8c54.4,41.4,128.1,89.8,196.8,101.6c20.8,4.6,44.1,4.1,65.2-0.2v-198c-18.3-0.5-37.6-0.8-55.8-1.4
		c-30.8-1-71.3-10.2-100.9-2.2c-24.2,6.5-47.8,21.4-72.2,29c-19.7,6.1-39.7,9.9-60.1,13.4c-4.5,0.8-19.8,0.6-23,4.4
		C189.9,326.6,241.2,361.1,250,367.8z"/>
</g>
<g id="Layer_6_copy_4" class="st0">
	<g class="st1">
		<defs>
			<circle id="SVGID_1_" cx="256" cy="256" r="256"/>
		</defs>
		<clipPath id="SVGID_2_">
			<use xlink:href="#SVGID_1_"  style="overflow:visible;"/>
		</clipPath>
		<g class="st10">
			<path class="st11" d="M190.8,233.3C190.8,233.3,190.8,233.3,190.8,233.3C197.3,228.9,193.3,231.6,190.8,233.3z"/>
			<rect class="st11" width="512" height="512"/>
			<path class="st12" d="M287.2,290.1c-36.8-4.3-83.6-12.2-107.9-43.5c-0.4-2.2,4.7-8.8,11.5-13.3c0,0,0,0,0,0
				c21.2-14.3,47.9-21.2,72.7-26.3C252.2,236.6,262,271,287.2,290.1z"/>
			<path class="st12" d="M398.3,209.6c17,7.1,28.5,18.4,40.6,31.9c7.8,8.7,34.2,31.7,34.2,42.1c-5,2.7-10.4,4-16.2,3.7
				c0.5-0.1,0.1-0.2-1.6-0.1c-24.4,3.1-54.8,5.6-86.5,6.2C396.3,276,408.9,240.6,398.3,209.6z"/>
			<path class="st12" d="M245.2,189.1c-31.7,9.1-57.2,23.4-86.3,37.9c-33.9,17-71.4,18-108.5,20.2c-16.9,1-33.6,2.3-50.5,3.4v-78.8
				c50.6-5.3,97.5-19.8,146.1-40.2c104.6-43.9,237.2-53.8,340.4,2.7c3.2,1.8,14.3,9.4,25.6,16.1v143.1c-15.5-16.1-35-35.8-38.6-40
				c-18.8-22.7-32.6-50.8-60.3-63.6C361.4,166.2,298.1,174,245.2,189.1z"/>
			<path class="st11" d="M190.8,233.3C190.8,233.3,190.8,233.3,190.8,233.3C189.2,234.4,188.2,235,190.8,233.3z"/>
			<path class="st12" d="M115.5,475.6c46.8-16.9,90.8-39.6,133.6-64.8c23.9-14.1,47.4-28.9,69.9-45c8.1-5.8,51.3-47.2,60.2-41.7
				c5.3,3.3,3.6,59.8,5.9,73.9c4.7,28,3.9,56.8,4.4,85.1c0.1,4.8-0.5,16.3-1.1,29H0v-26.8C38,493.5,77.3,489.4,115.5,475.6z"/>
			<path class="st12" d="M447.9,89.4C392.7,70,336.6,65.8,278.2,69.8c-60,4.1-108.3,23.4-163.4,45.6c-39,15.7-75.5,29.3-114.8,35V0
				h512v118.8C489.5,105.2,460.7,93.9,447.9,89.4z"/>
			<path class="st12" d="M428.3,435.7c4.7-24.5,16.3-35.9,9.5-60.3c-4.1-15-15-41.8-5.7-57.5c7.5-12.6,22.7-11.7,36-12
				c7.2-0.1,28.4,5.3,43.9,8.6V512h-86.8C426.5,476.8,426.7,444.1,428.3,435.7z"/>
			<path class="st12" d="M262,367.8c-54.4,41.4-128.1,89.8-196.8,101.6c-20.8,4.6-44.1,4.1-65.2-0.2v-198
				c18.3-0.5,37.6-0.8,55.8-1.4c30.8-1,71.3-10.2,100.9-2.2c24.2,6.5,47.8,21.4,72.2,29c19.7,6.1,39.7,9.9,60.1,13.4
				c4.5,0.8,19.8,0.6,23,4.4C322.1,326.6,270.8,361.1,262,367.8z"/>
		</g>
	</g>
</g>
<g id="Layer_6_copy_3">
	<path class="st11" d="M512,293.5c-1-0.8-1.6-1.7-2.4-2.5c1.6-11.5,2.4-23.1,2.4-35V293.5z"/>
	<path class="st11" d="M190.7,233.3C190.7,233.3,190.7,233.3,190.7,233.3C190.7,233.3,190.7,233.3,190.7,233.3
		C190.7,233.3,190.7,233.3,190.7,233.3z"/>
	<path class="st11" d="M194.2,230.9c-0.3,0.2-2.1,1.4-3.5,2.3c0,0,0,0,0,0C193,231.7,194,231.1,194.2,230.9z"/>
	<path class="st11" d="M194.2,230.9C194.3,230.9,194.3,230.9,194.2,230.9L194.2,230.9z"/>
	<path class="st11" d="M190.7,233.3C190.7,233.3,190.7,233.3,190.7,233.3c21.2-14.3,48-21.2,72.7-26.3
		c-11.3,29.6-1.5,64.1,23.8,83.2c-36.8-4.3-83.6-12.2-107.9-43.5C178.9,244.4,184,237.8,190.7,233.3z"/>
	<path class="st11" d="M398.2,209.6c17,7.1,28.5,18.4,40.6,31.9c7.8,8.7,34.2,31.7,34.2,42.1c-5,2.7-10.4,4-16.2,3.7
		c0.5-0.1,0.1-0.2-1.6-0.1c-24.4,3.1-54.8,5.6-86.5,6.2C396.3,276,408.8,240.6,398.2,209.6z"/>
	<path class="st11" d="M479.1,130.4c20.9,37.1,32.9,79.9,32.9,125.6c0,11.9-0.8,23.6-2.4,35c-15-15.6-32.8-33.5-36.2-37.6
		c-18.8-22.7-32.6-50.8-60.3-63.6c-51.7-23.8-115.1-15.9-167.9-0.8c-31.7,9.1-57.2,23.4-86.3,37.9c-33.9,17-71.4,18-108.5,20.2
		c-16.9,1-33.6,2.3-50.4,3.4c0.6-28.2,5.8-55.4,14.8-80.7c45-6.4,87.4-19.9,131.2-38.3C248.2,88.7,376.9,78.3,479.1,130.4z"/>
	<path class="st11" d="M190.7,233.3C190.7,233.3,190.7,233.3,190.7,233.3C189.1,234.4,188.1,235,190.7,233.3z"/>
	<path class="st11" d="M319,365.7c8.1-5.8,51.3-47.2,60.2-41.7c5.3,3.3,3.6,59.8,5.9,73.9c4.2,25.1,4,51,4.3,76.5
		c-38.9,23.8-84.6,37.6-133.5,37.6c-49.5,0-95.8-14.1-135-38.5c44.7-16.7,87-38.6,128.1-62.8C273,396.7,296.4,381.9,319,365.7z"/>
	<path class="st11" d="M278.2,69.8c-60,4.1-108.3,23.4-163.4,45.6c-30.6,12.4-59.7,23.4-89.9,30.3C66.1,59.5,154.1,0,255.9,0
		c78.4,0,148.5,35.2,195.5,90.7c-1.3-0.5-2.5-0.9-3.5-1.3C392.6,70,336.5,65.8,278.2,69.8z"/>
	<path class="st11" d="M437.8,375.3c-4.1-15-15-41.8-5.7-57.5c7.5-12.6,22.7-11.7,36-12c6.2-0.1,23,4,37.5,7.2
		c-11.9,52.3-39.8,98.4-78.3,133.1c0.3-4.8,0.6-8.4,1-10.5C432.9,411.2,444.5,399.8,437.8,375.3z"/>
	<path class="st11" d="M156.6,267.5c24.2,6.5,47.8,21.4,72.2,29c19.7,6.1,39.7,9.9,60.1,13.4c4.5,0.8,19.8,0.6,23,4.4
		c10.1,12.3-41.1,46.7-50,53.5C217,402,159,440.9,101.4,460.1C43.5,416.2,4.9,348.3,0.4,271.2c18.1-0.5,37.2-0.8,55.3-1.4
		C86.5,268.8,127,259.6,156.6,267.5z"/>
</g>
<g id="Layer_16" class="st0">
	<path class="st13" d="M-0.2,512.3c0-174.8,141.7-316.4,316.4-316.4c108,0,195.6,87.6,195.6,195.6c0,66.7-54.1,120.9-120.9,120.9
		c-41.2,0-74.7-33.4-74.7-74.7c0-25.5,20.7-46.2,46.2-46.2c15.8,0,28.5,12.8,28.5,28.5c0,9.7-7.9,17.6-17.6,17.6
		c-6,0-10.9-4.9-10.9-10.9c0-3.7,3-6.7,6.7-6.7c2.3,0,4.2,1.9,4.2,4.2"/>
	<path class="st13" d="M512.1,512.1c-174.8,0-316.4-141.7-316.4-316.4c0-108,87.6-195.6,195.6-195.6C457.9,0.1,512,54.2,512,120.9
		c0,41.2-33.4,74.7-74.7,74.7c-25.5,0-46.2-20.7-46.2-46.2c0-15.8,12.8-28.5,28.5-28.5c9.7,0,17.6,7.9,17.6,17.6
		c0,6-4.9,10.9-10.9,10.9c-3.7,0-6.7-3-6.7-6.7c0-2.3,1.9-4.2,4.2-4.2"/>
	<path class="st13" d="M512.1,512.3c0-174.8-141.7-316.4-316.4-316.4c-108,0-195.6,87.6-195.6,195.6c0,66.7,54.1,120.9,120.9,120.9
		c41.2,0,74.7-33.4,74.7-74.7c0-25.5-20.7-46.2-46.2-46.2c-15.8,0-28.5,12.8-28.5,28.5c0,9.7,7.9,17.6,17.6,17.6
		c6,0,10.9-4.9,10.9-10.9c0-3.7-3-6.7-6.7-6.7c-2.3,0-4.2,1.9-4.2,4.2"/>
	<path class="st13" d="M-0.2,512.1c174.8,0,316.4-141.7,316.4-316.4c0-108-87.6-195.6-195.6-195.6C54,0.1-0.1,54.2-0.1,120.9
		c0,41.2,33.4,74.7,74.7,74.7c25.5,0,46.2-20.7,46.2-46.2c0-15.8-12.8-28.5-28.5-28.5c-9.7,0-17.6,7.9-17.6,17.6
		c0,6,4.9,10.9,10.9,10.9c3.7,0,6.7-3,6.7-6.7c0-2.3-1.9-4.2-4.2-4.2"/>
</g>
</svg>
